<svg width="17" height="16" viewBox="0 0 17 16" fill="none" xmlns="http://www.w3.org/2000/svg">
<path d="M13.0303 9.90911C12.833 10.1003 12.7424 10.3767 12.7873 10.6479L13.4644 14.395C13.5215 14.7126 13.3875 15.034 13.1217 15.2176C12.8612 15.408 12.5147 15.4308 12.2306 15.2785L8.85742 13.5192C8.74013 13.4567 8.60989 13.4232 8.47661 13.4194H8.27022C8.19863 13.4301 8.12856 13.4529 8.06458 13.488L4.69065 15.2557C4.52386 15.3394 4.33498 15.3691 4.14991 15.3394C3.69904 15.2541 3.3982 14.8246 3.47208 14.3714L4.14991 10.6243C4.19485 10.3509 4.10421 10.0729 3.90696 9.87865L1.15679 7.21299C0.92678 6.98983 0.846811 6.65472 0.951913 6.35236C1.05397 6.05076 1.31444 5.83065 1.62898 5.78115L5.41418 5.23202C5.70207 5.20232 5.95492 5.02715 6.0844 4.7682L7.75232 1.34854C7.79193 1.27238 7.84295 1.20231 7.90464 1.1429L7.97319 1.08959C8.00898 1.04998 8.05011 1.01723 8.09581 0.990577L8.17882 0.960113L8.3083 0.906799H8.62893C8.9153 0.936502 9.16739 1.10787 9.29915 1.36377L10.9892 4.7682C11.111 5.01725 11.3479 5.19013 11.6213 5.23202L15.4065 5.78115C15.7264 5.82685 15.9937 6.04771 16.0996 6.35236C16.1993 6.65777 16.1133 6.99288 15.8787 7.21299L13.0303 9.90911Z" fill="#F6B76F"/>
</svg>
